<?xml version="1.0" encoding="UTF-8"?>
<svg id="Layer_2" data-name="Layer 2" xmlns="http://www.w3.org/2000/svg" viewBox="0 0 511.08 364.86">
  <g id="Layer_1-2" data-name="Layer 1">
    <g>
      <path d="M154.87,40.42c.42-4.15,2.4-9.38,4.49-12.99.83-.73.48,1.07.5,1.5.09,1.71-.58,4.69.99,5.75,6.01-14.68,20.03-25.05,34.98-29.47.19-1.73-6.68-.32-4.99-1.99.24-.24,5.58-1.58,6.48-1.77,13.49-2.84,28.83-1.46,41.48,3.76l-.75-1.99c11.69,5.54,19.14,14.78,22.87,27.08,2.47,8.13,2.27,15.35,10.61,20.36.89-.48-3.24-5.95-1.01-4.99,1.13.49,3.83,2.93,5.65,3.85,3.35,1.68,6.99,2.67,10.6,3.64-1.42-2.52-3.31-4.98-3.8-7.93-.08-.51-.51-1.51.55-1.05,1.29.56,4.58,3.54,6.42,4.58,3.61,2.03,8.86,4.77,13.02,4.35,2.39-.24,4.45-1.65,6.8-1.94.02,2.48-2.2,4.13-3.49,5.99,5.88,1.39,11.02-1.3,14.98-5.49.1,3.17.19,6.01-1,8.99,5.67,1.93,10.44.17,15.48-2.49-.16,2.1-1.59,3.71-2.49,5.49,6.06,1.04,12.34,2.61,18.48,1.51l-2.26,2.98-5.23,3c5.65,1.84,11.45,3.44,17.48,3.01,1.1.88-4.02,2.88-3.99,3.49,2.33-.5,4.79-.5,7.09-1.14,6.54-1.83,10.58-8.67,15.93-12.54,6.03-4.37,15.24-7.7,22.71-7.8.9-.01,6.93.55,7.24.75.84.53-.1,1.7-.03,1.76.09.08,1.7.14,2.4.35,14.72,4.47,28.46,12.82,37.57,25.37-1.6.42-3.3-1.79-4.75-2.25-.37-.08-.33.51-.24.74.75,1.83,4.68,6.41,6.07,8.91,6.13,11,9.31,23.13,7.41,35.8,2.47-1.43,3.39-4.18,4.74-6.49.61,8.67-4.01,16.79-8.74,23.72.77,1.13,4.39-2.3,4.48-.51-3.89,11.79-12.05,22.93-24.96,25.23-.12.86,1.18.53,1.73.49,1.48-.11,3.32-.56,4.75-.99,1.29,1.57-6.8,5.03-7.88,5.35-2.74.82-6.41,1.73-9.1.64,2.25,5.73,3.11,12.06,2.49,18.22-.21,2.1-1.28,4.01-1.5,5.99-1.11,10.21,1.51,22.65,5,32.21l-3.23-2.01-3.26-3.48c.57,7.16.7,13.98-.65,21.08-.6,3.13-1.58,7.6-3.84,9.89l-1-4.99c-1.97,13.34-7.99,24.98-17.99,33.95,27.61-3.25,54.46,4.44,62.51,33.65.36,1.3.75,5.9,1.75,6.24l46.65.07v9.49h-46.46c-.57,6.37-1.84,15.33-8.49,18.24-3.13,1.37-6.53.62-9.14,1.35-1.14.32-4.47,3.71-6.33,4.66-6.48,3.31-13.58,3.19-20.51,1.48-1.55-.38-5.74-2.37-6.72-2.27-.75.08-2.88,2.02-3.93,2.6-11.29,6.15-23.12,4.42-29.13-7.62-16.9,6.32-27.91.37-27.16-18.44H.75c-.05,0-.75-.7-.75-.75v-8.74h46.96c-.23-7.72.3-15.52.02-23.24-1.1-30.6-7.85-58.86-5.01-89.87,1.42-15.54,7.13-51.61,29.17-49.14,1.84.21,6.77,2.48,7.48,2.34s2.22-2.26,3.08-2.88c7.71-5.57,18.23-8.48,27.07-3.61.9.5,3.45,2.88,3.88,2.93,2.03.23,9.94-4.19,13.18-2.89,1.91-6.45,5.22-12.28,8.86-17.87.57-.88,2.46-2.73,2.7-3.3.45-1.06-.66-.66-1.12-.62-2.13.19-4.38,1.19-6.62.88-.43.06-.3-.93-.25-.99.15-.17,3.16-1.68,3.95-2.3,9.72-7.59,14.8-16.38,19.59-27.36,2.32-5.33,6.94-9.98,11.42-13.55-4.05-1.81-7.22-5.33-9.25-9.23-.73-1.4-2.01-3.55-1.49-5,1.5,1.44,3.18,3.36,5.25,3.99-9.53-9.38-10.59-23.49-7.49-35.95l3.49,4.49c.29-3.94-.39-8.37,0-12.24ZM398.67,90.61h11.24c2.77,0,11.65,3.18,14.43,4.56,13.36,6.62,25.6,25.18,21.29,40.39-1.68-.91-.82-3.68-1.13-5.6-.99-6.03-3.65-11.87-8.35-15.87.26,1.8,1.63,3.31,2.23,5,2.45,6.87,2.41,13.67-.25,20.47-.99-.18-.8-1.08-1.01-1.73-.64-2.02-.97-4.16-1.9-6.1l-2.58-4.15c-.29,10.82-1.11,23.55-9.99,30.96.16-4.04,1.96-8.02.25-11.98-1.83,2.42-3.12,5.15-4.83,7.65-.66.97-3.16,3.43-3.36,4.19-.24.92,3.74,6.46,4.69,6.64,1.3.25,5.28-.42,6.77-.73,1.33-.27,8.34-2.64,8.97-3.28,1.4-1.45-4.94-.97-3.49-2.48.16-.17,3.5-1.37,4.34-1.91,4.16-2.67,6.77-6.35,10.14-9.84-2.15-.43.67-3.34,1.38-5.11,4.69-11.71,2.75-25.3-1.24-36.97-5.65-16.53-18.12-27.65-34.11-34.08l1.99-1.49c-7.84-1.31-15.79,0-23.23,2.49-.95-.74,1.51-2.77,1.25-2.99-10.73,4.47-19.1,14.22-25.69,23.51l-4.28,7.95c-.43-4.08.66-7.96.99-11.98l-1.99,1,.49-3.99c-7.84,1.24-16.67-1.09-23.81-4.42-.74-.35-4.96-2.38-5.16-2.58-1.97-2,5.38.25,4.99-.99-3.44-1.1-12.31-5.18-14.25-7.98-1.53-2.21,2.93.19,3.26-1.01-1.88-.27-4.42-1.04-6.24-1.05-2.18-.01-4.66,1.12-6.89.44-1.92-.58-6.58-6.17-9.59-6.4-2.07.25,1.22.77.74,1.75-.57,1.16-6.72.87-8.23.75-2.61-.2-5.19-1.01-7.75-1.49l4,2.99c-10.17-.12-20.31-3.61-28.23-9.97l-2,3.48-1.24-2.99c-.65,3.57-2.42,7.38-4.26,10.5-.38.65.09,1.26-1.24.98,2.42-13.44-.34-27.97-5.92-40.28l-2.07-3.16-.25,3.49c-5.16-5.88-10.74-12.33-18.24-14.98l.74,2c-14.72-3.57-30.67-1.94-43.36,6.58s-24.18,22.01-24.33,37.37l-.99-.51c-.57.84,1.29,9.4,1.75,10.99.94,3.22,2.45,5.51,3.74,8.49-.41.41-3.19-1.87-3.99-.75,1.84,3.35,7.1,11.21,10.87,12.14,1.4.34,7.2-1.63,7.55-2.73l-.45-14.15c-3.45,1.95-4,5.59-5.44,8.79-.96,2.14-1.43-.86-1.54-2.05-.65-6.71.66-12.14,3.26-18.21,1.49-3.48,3.63-6.59,5.23-10-1.1-1.09-8.7,6.01-9.75,6.49-.65.29-.81-.04-.68-.68,1.24-6.26,4.94-11.68,9.69-15.79l4.23-3c-5.54.52-10.59,3.99-14.24,7.98-.68.75-2.09,3.36-2.25,3.5-1.22,1.02-.99-1.23-.78-2.03,3.97-14.99,28.9-21.15,42.26-18.2,6.77,1.5,13.93,5.32,19.24,9.74,2.04.89-1.18-4-1.54-4.45-.96-1.18-2.56-1.55-2.71-3.03,15.88,5.23,15.57,24.13,11.49,37.45l7.99-1.25c-9.32,6.2-21.48,5.99-31.97,3.25,3.03,3.55,8.75,3.33,12.36,4.86.71.3.76.11.62,1.12-7.86-.25-15.6,1.49-22.97,4l11.33,1.92,1.16,1.06c-8.97.09-18.63.58-26.47,5.25,2.03.89,4.28-.17,6.25-.25,3.71-.14,10.06-.04,13.58.93.85.23,1.39-.36,1.15,1.06-10.64.6-23.17,1.89-33.24,5.47-5.98,2.13-14.69,8.55-15.72,15.26-.26,1.71,4-.4,4.95-.56.73-.12,1.21-.63,1.05.55-7.96,4.85-14.77,11.16-20.48,18.49.3.62,1.4.05,1.89-.1,3.51-1.12,6.74-2.69,10.37-3.62.72-.19,1.39-1.12,1.22.22-7.05,3.89-12.98,8.66-17.96,15.01-1.21,1.55-4.54,5.86-5.01,7.48-.18.63.12,1,.74.73.51-.22,3.11-2.72,4.1-3.4,2.63-1.82,5.35-3.54,8.15-5.09l-8.1,10.13c-.84,1.25-5.91,10-5.87,10.6.02.34.82.74,1.25.78,1.79.15,3.99-3.49,5.5-4.51l6.73-5-7.94,11.66c4.9,4.47,8.24,9.65,9.51,16.24,21.34,2.12,17.53,27.81,15.86,43.2-1.41,13-4.18,25.9-7.86,38.42l14.67,13.83c1.32.1.51-.21.35-.85-.26-1.04-.81-2-.6-3.14.49-.65,9.32,6.68,10.33,7.4,3.88,2.78,8.17,5.19,11.88,8.1,4.15,3.25,7.79,7.28,12.01,10.47.75-.39-.11-1.2-.36-1.64s-3.14-4.44-1.15-3.84c6.72,3.27,13.84,5.44,20.4,9.08,23.42,13.01,33.69,16.97,61.56,14.9.63-.05,1.68-.59,1.73-.51,1.03,1.43-3.91,3.41-4.99,4-.13.67.19.52.75.51,6.08-.12,13.57-4.12,19.61-4.88,10.84-1.36,19.64-.93,30.7-3.77.59-.15,6.92-2.6,6.89-1.6l-2.01,6.23c.96.79,15.51-7.21,17.26-8.96,1.54-1.54,2.66-3.98,4.21-5.78,2.8-3.23,5.77-4.45,8.53-6.96,2.46-2.24,4.44-6.12,7.23-8.26.65.32.04,1.36-.15,1.85s-2.68,4.19-.86,3.64c4.6-1.39,11.53-8.78,13.14-13.34,1.89-5.36.78-10.15.62-15.62,1.94,1.71,2.75,4.73,3.63,7.1l1.35,7.88c3.01-11.02,4.48-21.81,1.01-32.96,3.7,4.31,4.96,9.86,6.64,15.09.17.52.13,1.51.85,1.39,1.28-9.59,2.47-19.38.51-28.96,1.42-.26.82.34,1.12,1.09.83,2.07,1.32,4.31,2.12,6.39l2.74,12.48c2.15-10.04,2.69-20.47.01-30.46l2.58,4.16,4.4,11.32c.58-9.47-.58-18.79-4.11-27.6-.79-1.96-2.98-5.04-3.39-6.6-.14-.54-.06-1.07.51-.51,3.21,3.12,5.7,8.51,8.98,11.74-.15-5.33-1.18-10.97-2.63-16.09-.92-3.23-3.97-8.78-4.36-11.13-.05-.29-.13-.82.25-.75.77.4,3.88,5.4,4.75,4.49,3.44-14.46-5.98-24.55-15.48-33.72-4.4-4.24-9.34-8.02-13.99-11.99l.24-.74,3.9,2.1,13.84,9.39c-3.54-8.62-12.11-14.5-19.48-19.73l2.77.23,9.21,4.27c-1.95-2.59-4.21-5.73-6.47-8.02-1.44-1.46-9.7-7.8-10.01-8.47-.12-.26-.09-.85.24-.74,2.94,1.54,6.76,3.01,10.05,3.44.56.07,2.7.49,2.69-.44-8.14-2.9-16.06-7.98-21.18-15.03-.68-.94-3.01-4.37-3.29-5.21-.08-.25-.14-.82.24-.74.86.7,5.32,6.82,6.24,5.99,3-13.59,13.75-30.53,29.98-24.22-3.14.32-7.03.28-8.99,3.24ZM97.75,181.68c-8.75.24-11.18,17.63.42,17.35s8.13-17.58-.42-17.35ZM126.29,185.61c-10.13.8-11.93,17.03-.6,17.33,10.58.28,9.4-18.02.6-17.33ZM70.32,194.09c-8.03,1.17-8.23,17.56,1.73,17.25,12.77-.4,8.11-18.69-1.73-17.25ZM146.75,205.6c-8.31,1.33-11.4,13.29-2.51,16.25,12.23,4.07,14.53-18.17,2.51-16.25ZM94.31,212.61c-11.08,1.26-29.55,13.05-20.08,25.79,9.18,12.35,37.59,15.34,50.66,9.28,9.65-4.47,8.28-12.17,3.31-19.79-7.08-10.87-21.12-16.74-33.9-15.28Z"/>
      <path d="M254.78,189.5l-.99-.25c1.16-18.42-18.46-30.7-34.43-20.43-16.4,10.55-12.01,37.6,7.43,41.93,4.29.96,5.92.19,9.9-.15.45-.04,1.63-.39,1.12.62-.29.57-6.31,5.04-7.34,5.65-19.52,11.68-34.47-3.42-41.71-21.04-14.4-35.03,35.03-64.49,64.65-58.64,27.84,5.5,9.2,37.39,1.38,52.3Z"/>
      <path d="M305.25,233.46l4.54,4.2c27.69,20.48,52.04-25.93,23.28-39.25-10.92-5.06-22-.59-28.81,8.58,1.08-10.82,2.55-22.35,6.75-32.45,7-16.87,20.37-13.84,32.45-3.99,17.75,14.47,34.68,51.23,20.45,72.36-6.89,10.24-27.9,18.53-39.79,15.9-11.73-2.59-16.6-14.78-18.86-25.34Z"/>
      <path d="M301.25,285.39c-.43,4.13-4.84,6.19-8.38,7.35-15.37,5.02-33.58-1.09-37.58-17.84-.29-.27-5.27,3.08-6.24,3.5-12.93,5.64-28.19-1.8-35.44-13.02-1.61-2.49-4.32-8.16-1.79-10.46,4.6,7.13,10.3,16.05,18.65,19.07,8.94,3.23,21.54.78,25.41-8.75,1.84-4.54-.93-4.31-3.49-7.66-2.25-2.95-4.82-7-6.79-10.2-3.5-5.69-8.4-11.63-5.15-18.55,3.71-7.92,12.99-3.94,19.46-2.24,7.26,1.91,23.42,7.08,29.35,11.12,5.36,3.65,5.08,11.23.47,15.41-3.08,2.79-20.73,9.16-25.31,10.16-1.1.24-2.89-.14-3.64.35-1.29.84-1.64,7.37-1.43,8.97.47,3.59,4.51,9.33,7.22,11.76,10.34,9.31,23.08,4.95,34.7,1.02ZM287.76,242.94c1.62-1.53-5.48-5.04-6.31-5.42-3.32-1.53-6.94-2.88-10.67-2.57-1.69,1.64,6.52,5.63,7.65,6.08,2.86,1.15,6.24,2.13,9.33,1.91Z"/>
      <path d="M311.23,206.49c4.35,8.03,14.68,2.53,12.5-6,19.62.15,24.75,28.64,7.13,36.35-14.62,6.4-28.64-7.66-24.89-22.39.31-1.23,3.61-9.14,5.26-7.96ZM326.09,226.06c-3.45,1.01-2.01,7.57,2.04,6.57,4.61-1.15,2.8-7.99-2.04-6.57Z"/>
      <path d="M249.29,185.01v7.24c0,5.78-8.96,13.52-14.46,14.51-25.78,4.64-29.35-36.34-4.29-37.75,2.42-.14,9.85,1.29,11.04,3.5.59,1.09-1.15,1.81-1.67,2.87-3.31,6.75,2.8,13.06,9.38,9.62ZM225.2,191.12c-2.78-2.75-8.23,1.23-5.11,4.86s8.07-1.92,5.11-4.86Z"/>
    </g>
  </g>
</svg>