<?xml version="1.0" encoding="UTF-8"?>
<svg id="Layer_2" data-name="Layer 2" xmlns="http://www.w3.org/2000/svg" viewBox="0 0 1824.27 1302.36">
  <defs>
    <style>
      .cls-1 {
        fill: none;
        stroke: #b6dcb2;
        stroke-miterlimit: 10;
        stroke-width: 18px;
      }

      .cls-2 {
        fill: #edb5d3;
      }

      .cls-3 {
        fill: #fff;
      }
    </style>
  </defs>
  <g id="Layer_1-2" data-name="Layer 1">
    <ellipse class="cls-3" cx="981.87" cy="715.63" rx="451.59" ry="534.2" transform="translate(178.52 1627.12) rotate(-84.69)"/>
    <ellipse class="cls-3" cx="984.42" cy="646.2" rx="451.59" ry="509.27" transform="translate(249.97 1566.66) rotate(-84.69)"/>
    <ellipse class="cls-3" cx="753.81" cy="194.84" rx="169.43" ry="188.55" transform="translate(490.1 927.41) rotate(-84.69)"/>
    <ellipse class="cls-3" cx="1446.58" cy="428.56" rx="171.36" ry="194.08" transform="translate(182.47 1252.15) rotate(-49.59)"/>
    <ellipse class="cls-2" cx="376.57" cy="788.82" rx="206.93" ry="154.11"/>
    <ellipse class="cls-1" cx="826.83" cy="668.66" rx="71.94" ry="76.16"/>
    <ellipse class="cls-1" cx="1154.71" cy="783.34" rx="71.94" ry="76.16"/>
    <path d="M552.81,144.28c1.5-14.8,8.55-33.47,16.04-46.37,2.97-2.6,1.72,3.82,1.8,5.35.31,6.1-2.06,16.74,3.54,20.51,21.44-52.4,71.48-89.41,124.85-105.19.69-6.17-23.86-1.14-17.83-7.09.85-.84,19.91-5.65,23.11-6.33,48.16-10.12,102.9-5.2,148.07,13.42l-2.69-7.1c41.71,19.79,68.31,52.77,81.62,96.67,8.8,29.02,8.11,54.78,37.88,72.66,3.18-1.73-11.55-21.25-3.6-17.8,4.02,1.74,13.66,10.46,20.16,13.73,11.97,6.01,24.96,9.51,37.82,12.98-5.06-9-11.83-17.78-13.58-28.32-.3-1.81-1.83-5.39,1.97-3.74,4.61,2.01,16.35,12.65,22.9,16.34,12.89,7.26,31.63,17.04,46.48,15.54,8.51-.86,15.87-5.9,24.25-6.93.07,8.86-7.86,14.74-12.47,21.37,20.99,4.95,39.34-4.64,53.48-19.59.37,11.32.67,21.44-3.55,32.08,20.23,6.88,37.25.61,55.27-8.9-.58,7.49-5.66,13.24-8.9,19.59,21.64,3.71,44.03,9.3,65.97,5.38l-8.06,10.64-18.67,10.72c20.18,6.58,40.89,12.29,62.39,10.73,3.92,3.15-14.34,10.28-14.25,12.45,8.3-1.78,17.11-1.78,25.32-4.08,23.35-6.53,37.77-30.94,56.86-44.77,21.52-15.59,54.39-27.49,81.07-27.86,3.21-.04,24.75,1.98,25.84,2.68,3,1.9-.36,6.07-.09,6.3.33.28,6.05.5,8.57,1.26,52.55,15.94,101.6,45.74,134.1,90.56-5.72,1.51-11.79-6.41-16.94-8.02-1.32-.29-1.19,1.82-.86,2.63,2.67,6.52,16.7,22.87,21.68,31.81,21.9,39.27,33.25,82.56,26.46,127.77,8.81-5.11,12.11-14.9,16.93-23.17,2.19,30.96-14.31,59.93-31.2,84.68,2.76,4.02,15.67-8.2,15.99-1.81-13.9,42.09-43.02,81.83-89.1,90.07-.45,3.07,4.21,1.88,6.19,1.74,5.29-.4,11.85-1.99,16.97-3.54,4.59,5.59-24.29,17.95-28.13,19.1-9.78,2.94-22.89,6.19-32.47,2.29,8.02,20.47,11.1,43.06,8.88,65.05-.76,7.5-4.58,14.3-5.35,21.4-3.96,36.44,5.41,80.83,17.84,114.99l-11.53-7.17-11.62-12.42c2.05,25.54,2.5,49.91-2.33,75.23-2.13,11.18-5.62,27.12-13.72,35.29l-3.57-17.82c-7.04,47.62-28.54,89.17-64.22,121.2,98.55-11.6,194.4,15.84,223.14,120.12,1.28,4.64,2.68,21.07,6.25,22.28l166.5.23v33.87h-165.84c-2.04,22.75-6.57,54.72-30.29,65.09-11.16,4.88-23.32,2.21-32.64,4.81-4.09,1.14-15.97,13.25-22.6,16.63-23.14,11.82-48.48,11.39-73.2,5.29-5.54-1.36-20.5-8.45-23.99-8.1-2.69.27-10.26,7.22-14.04,9.28-40.31,21.97-82.54,15.78-103.98-27.19-60.31,22.54-99.64,1.3-96.94-65.81H2.67c-.19,0-2.67-2.48-2.67-2.67v-31.2h167.64c-.83-27.57,1.06-55.39.06-82.97-3.94-109.22-28.03-210.08-17.89-320.8,5.08-55.48,25.44-184.21,104.11-175.42,6.57.73,24.17,8.86,26.7,8.36,2.58-.51,7.92-8.08,10.98-10.29,27.52-19.89,65.07-30.27,96.62-12.89,3.21,1.77,12.3,10.27,13.87,10.44,7.25.81,35.49-14.95,47.05-10.32,6.82-23.02,18.63-43.82,31.61-63.77,2.04-3.13,8.77-9.76,9.63-11.77,1.62-3.8-2.34-2.36-3.99-2.22-7.6.68-15.64,4.24-23.63,3.14-1.55.21-1.07-3.32-.88-3.54.53-.62,11.27-5.99,14.11-8.2,34.69-27.1,52.84-58.48,69.92-97.68,8.28-19.01,24.77-35.63,40.78-48.37-14.45-6.45-25.78-19.03-33.01-32.94-2.6-5.01-7.16-12.66-5.33-17.85,5.35,5.15,11.37,11.98,18.73,14.24-34.03-33.49-37.79-83.86-26.73-128.34l12.46,16.04c1.03-14.05-1.4-29.86,0-43.68ZM1423.04,323.44h40.12c9.9,0,41.6,11.36,51.5,16.26,47.7,23.63,91.38,89.86,75.99,144.18-5.99-3.26-2.91-13.12-4.05-20-3.55-21.52-13.03-42.38-29.8-56.65.92,6.44,5.82,11.83,7.97,17.86,8.74,24.52,8.61,48.78-.87,73.05-3.55-.63-2.85-3.84-3.6-6.18-2.29-7.2-3.47-14.85-6.76-21.76l-9.21-14.83c-1.04,38.64-3.96,84.05-35.67,110.52.56-14.41,6.99-28.62.88-42.78-6.55,8.63-11.15,18.39-17.25,27.32-2.36,3.46-11.27,12.23-11.98,14.94-.86,3.3,13.36,23.05,16.74,23.71,4.64.91,18.85-1.51,24.17-2.61,4.75-.97,29.78-9.41,32-11.71,5.01-5.16-17.62-3.47-12.47-8.86.58-.61,12.48-4.88,15.5-6.81,14.85-9.52,24.18-22.68,36.21-35.12-7.67-1.53,2.4-11.93,4.93-18.24,16.75-41.79,9.8-90.32-4.44-131.98-20.16-58.99-64.66-98.7-121.74-121.65l7.12-5.31c-27.97-4.68-56.36,0-82.93,8.87-3.39-2.63,5.39-9.9,4.48-10.66-38.3,15.95-68.16,50.74-91.69,83.91l-15.28,28.37c-1.52-14.55,2.36-28.43,3.53-42.78l-7.11,3.56,1.76-14.24c-27.99,4.43-59.51-3.88-84.98-15.77-2.65-1.24-17.71-8.49-18.43-9.23-7.02-7.13,19.19.89,17.81-3.52-12.29-3.93-43.95-18.49-50.86-28.49-5.45-7.88,10.48.69,11.63-3.59-6.69-.96-15.77-3.7-22.28-3.74-7.77-.05-16.62,3.98-24.6,1.57-6.84-2.06-23.5-22.02-34.23-22.83-7.38.89,4.37,2.75,2.65,6.23-2.04,4.14-24,3.1-29.38,2.68-9.33-.72-18.53-3.61-27.66-5.31l14.27,10.66c-36.3-.44-72.48-12.88-100.77-35.59l-7.13,12.42-4.43-10.68c-2.31,12.74-8.65,26.36-15.2,37.47-1.36,2.3.32,4.49-4.43,3.51,8.63-47.99-1.21-99.83-21.12-143.79l-7.41-11.29-.9,12.46c-18.41-21-38.35-44-65.1-53.46l2.65,7.14c-52.53-12.73-109.49-6.91-154.79,23.48-43.38,29.11-86.3,78.57-86.83,133.38l-3.54-1.81c-2.03,3,4.59,33.56,6.24,39.22,3.35,11.5,8.76,19.68,13.35,30.31-1.47,1.46-11.38-6.68-14.25-2.68,6.57,11.96,25.36,40.03,38.8,43.33,4.99,1.23,25.68-5.82,26.96-9.76l-1.59-50.49c-12.31,6.97-14.29,19.97-19.43,31.37-3.44,7.64-5.09-3.07-5.51-7.32-2.33-23.96,2.37-43.32,11.64-64.99,5.31-12.42,12.97-23.52,18.66-35.7-3.91-3.89-31.05,21.45-34.79,23.15-2.31,1.05-2.89-.13-2.44-2.42,4.43-22.36,17.63-41.7,34.6-56.36l15.11-10.72c-19.78,1.85-37.8,14.25-50.84,28.48-2.44,2.67-7.47,12.01-8.04,12.49-4.35,3.63-3.52-4.41-2.77-7.24,14.17-53.5,103.16-75.51,150.83-64.96,24.18,5.35,49.72,19,68.66,34.77,7.27,3.16-4.21-14.28-5.51-15.89-3.42-4.22-9.14-5.55-9.66-10.82,56.67,18.68,55.59,86.13,41.01,133.68l28.52-4.46c-33.26,22.13-76.66,21.37-114.12,11.61,10.83,12.66,31.22,11.89,44.13,17.36,2.54,1.08,2.72.39,2.22,4-28.06-.9-55.7,5.3-82.01,14.29l40.43,6.87,4.13,3.79c-32.03.31-66.49,2.08-94.49,18.74,7.25,3.19,15.28-.62,22.3-.88,13.26-.5,35.9-.13,48.46,3.31,3.05.83,4.97-1.29,4.12,3.8-37.99,2.15-82.71,6.74-118.66,19.54-21.34,7.6-52.44,30.53-56.12,54.45-.94,6.09,14.29-1.43,17.67-1.99,2.62-.43,4.32-2.25,3.74,1.96-28.4,17.31-52.73,39.85-73.09,65.99,1.07,2.23,4.98.19,6.76-.37,12.54-3.99,24.07-9.6,37-12.93,2.58-.66,4.95-3.99,4.37.79-25.17,13.88-46.32,30.92-64.11,53.58-4.33,5.52-16.2,20.92-17.88,26.7-.66,2.26.42,3.59,2.62,2.62,1.84-.8,11.11-9.71,14.62-12.13,9.4-6.49,19.09-12.62,29.08-18.16l-28.91,36.15c-3,4.47-21.1,35.68-20.96,37.84.08,1.21,2.92,2.65,4.46,2.78,6.4.53,14.24-12.45,19.62-16.11l24.02-17.86-28.34,41.63c17.49,15.94,29.42,34.43,33.93,57.96,76.16,7.56,62.57,99.26,56.61,154.22-5.04,46.41-14.93,92.45-28.05,137.13l52.37,49.37c4.7.34,1.82-.74,1.26-3.04-.91-3.71-2.88-7.14-2.15-11.2,1.75-2.3,33.28,23.85,36.86,26.41,13.85,9.93,29.17,18.53,42.42,28.9,14.81,11.59,27.8,25.98,42.86,37.38,2.66-1.4-.41-4.29-1.27-5.86-.84-1.52-11.2-15.85-4.12-13.72,24,11.68,49.42,19.42,72.8,32.41,83.6,46.45,120.26,60.56,219.74,53.18,2.25-.17,5.98-2.09,6.17-1.83,3.68,5.09-13.95,12.17-17.8,14.28-.46,2.38.68,1.85,2.68,1.81,21.72-.43,48.44-14.72,69.99-17.42,38.7-4.85,70.1-3.32,109.6-13.44,2.12-.54,24.71-9.29,24.61-5.71l-7.16,22.24c3.42,2.81,55.37-25.74,61.59-32,5.48-5.51,9.49-14.2,15.04-20.62,9.98-11.54,20.61-15.87,30.43-24.84,8.77-8.01,15.85-21.86,25.8-29.47,2.34,1.14.14,4.86-.54,6.59s-9.57,14.95-3.07,12.98c16.41-4.96,41.15-31.35,46.9-47.61,6.76-19.15,2.8-36.23,2.2-55.76,6.91,6.1,9.81,16.89,12.96,25.35l4.83,28.12c10.73-39.34,15.97-77.87,3.6-117.65,13.21,15.39,17.69,35.18,23.7,53.86.6,1.87.45,5.38,3.02,4.96,4.57-34.22,8.81-69.16,1.81-103.38,5.06-.92,2.93,1.21,4.01,3.91,2.97,7.38,4.7,15.38,7.57,22.82l9.79,44.55c7.68-35.82,9.59-73.07.04-108.73l9.21,14.84,15.72,40.41c2.07-33.79-2.06-67.05-14.67-98.51-2.81-7.01-10.65-17.98-12.09-23.57-.5-1.92-.22-3.81,1.82-1.82,11.48,11.13,20.36,30.39,32.07,41.91-.54-19.02-4.22-39.15-9.4-57.43-3.27-11.53-14.17-31.36-15.56-39.72-.17-1.04-.47-2.93.9-2.67,2.75,1.43,13.85,19.28,16.94,16.03,12.27-51.61-21.34-87.64-55.25-120.35-15.69-15.14-33.35-28.64-49.94-42.78l.87-2.64,13.92,7.48,49.39,33.5c-12.64-30.76-43.21-51.77-69.53-70.42l9.89.81,32.89,15.25c-6.96-9.25-15.04-20.45-23.09-28.62-5.15-5.22-34.63-27.83-35.73-30.25-.43-.94-.34-3.03.87-2.64,10.49,5.48,24.12,10.74,35.87,12.28,2,.26,9.64,1.75,9.6-1.57-29.04-10.35-57.32-28.48-75.62-53.66-2.44-3.36-10.76-15.61-11.73-18.59-.29-.9-.48-2.91.86-2.63,3.08,2.49,18.98,24.35,22.29,21.38,10.72-48.5,49.07-108.99,107-86.45-11.21,1.15-25.1,1.01-32.09,11.58ZM348.9,648.51c-31.22.85-39.92,62.92,1.51,61.92,40.66-.98,29-62.75-1.51-61.92ZM450.79,662.52c-36.16,2.84-42.57,60.78-2.13,61.86,37.76,1.01,33.55-64.33,2.13-61.86ZM251.02,692.81c-28.66,4.17-29.38,62.7,6.18,61.58,45.59-1.43,28.95-66.7-6.18-61.58ZM523.82,733.87c-29.68,4.74-40.7,47.43-8.94,58,43.64,14.52,51.85-64.85,8.94-58ZM336.64,758.91c-39.54,4.51-105.46,46.58-71.67,92.05,32.76,44.07,134.17,54.76,180.84,33.13,34.43-15.95,29.55-43.45,11.83-70.64-25.27-38.78-75.39-59.74-121-54.54Z"/>
    <path d="M909.43,676.4l-3.54-.88c4.13-65.75-65.9-109.58-122.88-72.93-58.53,37.65-42.88,134.19,26.5,149.68,15.3,3.42,21.15.68,35.33-.54,1.61-.14,5.81-1.38,3.98,2.21-1.03,2.03-22.54,17.98-26.2,20.17-69.66,41.7-123.03-12.22-148.87-75.09-51.4-125.04,125.03-230.2,230.77-209.3,99.39,19.64,32.83,133.45,4.91,186.68Z"/>
    <path d="M1089.58,833.31l16.19,14.99c98.86,73.12,185.74-92.54,83.1-140.12-38.97-18.06-78.54-2.1-102.84,30.63,3.87-38.63,9.12-79.79,24.09-115.85,24.99-60.2,72.69-49.42,115.83-14.24,63.36,51.66,123.77,182.86,73,258.28-24.6,36.54-99.58,66.14-142.05,56.76-41.86-9.25-59.24-52.76-67.32-90.45Z"/>
    <path d="M1075.29,1018.7c-1.55,14.73-17.26,22.1-29.91,26.24-54.85,17.92-119.87-3.89-134.15-63.67-1.04-.95-18.8,10.99-22.26,12.5-46.16,20.12-100.62-6.42-126.52-46.49-5.74-8.88-15.43-29.11-6.38-37.32,16.42,25.44,36.75,57.3,66.56,68.08,31.91,11.53,76.88,2.78,90.69-31.22,6.58-16.2-3.33-15.4-12.47-27.36-8.05-10.53-17.21-24.97-24.23-36.39-12.49-20.32-29.98-41.51-18.39-66.22,13.25-28.25,46.37-14.06,69.45-8,25.93,6.81,83.6,25.27,104.75,39.68,19.12,13.02,18.13,40.08,1.68,55.01-10.99,9.98-73.98,32.71-90.33,36.27-3.93.86-10.31-.48-13,1.26-4.62,3-5.87,26.32-5.11,32.02,1.69,12.82,16.11,33.3,25.76,41.99,36.91,33.22,82.38,17.67,123.86,3.62ZM1027.15,867.16c5.8-5.44-19.56-17.98-22.54-19.35-11.85-5.45-24.78-10.27-38.08-9.16-6.04,5.85,23.29,20.09,27.31,21.7,10.22,4.1,22.28,7.6,33.3,6.8Z"/>
    <path d="M1110.94,737.04c15.52,28.66,52.38,9.04,44.61-21.41,70.02.53,88.35,102.23,25.46,129.75-52.2,22.84-102.22-27.34-88.85-79.91,1.12-4.41,12.9-32.61,18.77-28.43ZM1163.97,806.91c-12.31,3.61-7.17,27.03,7.29,23.43,16.44-4.09,9.98-28.51-7.29-23.43Z"/>
    <path d="M889.85,660.37v25.85c0,20.62-31.97,48.25-51.63,51.79-92.03,16.55-104.75-129.72-15.31-134.75,8.63-.49,35.17,4.59,39.41,12.51,2.09,3.91-4.09,6.47-5.95,10.25-11.81,24.08,9.99,46.6,33.47,34.35ZM803.84,682.19c-9.91-9.83-29.38,4.39-18.25,17.34,10.99,12.78,28.81-6.87,18.25-17.34Z"/>
  </g>
</svg>